# xmcd
#
# Track frame offsets:
#	150
#	15411
#	32452
#	45113
#	57856
#	74835
#	92629
#	102943
#	133067
#	149077
#	167144
#	189819
#	208970
#
# Disc length: 2843 seconds
#
# Revision: 1
# Processed by: cddbd v1.5.1PL0 Copyright (c) Steve Scherf et al.
# Submitted via: CDex 1.50Beta5
#
DISCID=b40b190d
DTITLE=りんけんバンド - あじまぁのウタ
DYEAR=1900
DGENRE=Soundtrack
TTITLE0=里や糸ぬ上
TTITLE1=織りなす日々
TTITLE2=小夏
TTITLE3=仲島節
TTITLE4=浦風
TTITLE5=いちゃいぶさ
TTITLE6=肝にかかてぃ
TTITLE7=ふなやれ
TTITLE8=石川 金武 辺野古
TTITLE9=乾杯さびら〜ありがとう
TTITLE10=嘉手久〜唐船どーい
TTITLE11=黄金三星
TTITLE12=仲島節
EXTD=
EXTT0=
EXTT1=
EXTT2=
EXTT3=
EXTT4=
EXTT5=
EXTT6=
EXTT7=
EXTT8=
EXTT9=
EXTT10=
EXTT11=
EXTT12=
PLAYORDER=
